<svg xmlns="http://www.w3.org/2000/svg" width="500" height="500" viewBox="0 0 500 500" version="1.1"><path d="M 323.118 126.906 C 321.968 127.635, 318.042 145.999, 318.009 150.805 C 318.003 151.737, 319.343 152.023, 322.704 151.805 L 327.407 151.500 331.187 139.500 C 333.266 132.900, 334.975 127.162, 334.984 126.750 C 335.006 125.703, 324.805 125.837, 323.118 126.906 M 269.614 135.601 C 262.527 136.337, 256.623 137.065, 256.495 137.219 C 256.199 137.575, 262.258 203.370, 262.632 203.871 C 262.785 204.076, 265.910 203.921, 269.577 203.529 L 276.245 202.815 275.495 193.157 C 275.084 187.846, 274.691 182.157, 274.623 180.515 L 274.500 177.529 286.720 176.306 C 299.428 175.033, 303.408 173.713, 308.339 169.136 C 316.117 161.915, 316.719 149.968, 309.732 141.492 C 303.394 133.802, 296.583 132.802, 269.614 135.601 M 234.828 138.903 C 231.708 139.237, 228.968 139.734, 228.739 140.006 C 228.510 140.278, 225.040 148.743, 221.028 158.817 C 217.016 168.891, 213.424 176.766, 213.046 176.317 C 212.667 175.868, 207.711 168.139, 202.031 159.143 L 191.705 142.786 188.103 143.382 C 186.121 143.710, 182.700 143.990, 180.500 144.004 C 178.300 144.019, 175.946 144.382, 175.270 144.812 C 174.309 145.423, 174.688 152.371, 177.004 176.547 C 178.635 193.571, 179.976 208.535, 179.984 209.800 C 180 212.026, 180.200 212.077, 186.250 211.417 C 189.688 211.042, 192.650 210.607, 192.834 210.450 C 193.018 210.294, 192.184 199.750, 190.980 187.020 C 189.777 174.289, 188.997 163.670, 189.246 163.420 C 189.496 163.171, 195.481 171.946, 202.548 182.920 C 209.615 193.894, 215.698 202.687, 216.066 202.459 C 216.434 202.232, 220.694 192.326, 225.534 180.445 C 230.748 167.644, 234.618 159.385, 235.033 160.172 C 235.417 160.902, 236.487 170.500, 237.410 181.500 C 239.692 208.699, 238.858 206.381, 246.132 205.722 C 249.446 205.421, 252.319 205.014, 252.517 204.817 C 252.714 204.619, 251.560 190.517, 249.952 173.479 C 248.344 156.441, 247.022 141.488, 247.014 140.250 C 246.999 137.776, 246.177 137.685, 234.828 138.903 M 351.558 145.492 C 342.957 148.556, 338.574 154.375, 339.321 161.736 C 340.242 170.810, 344.851 173.888, 359.206 175.016 C 364.615 175.441, 369.707 176.342, 370.520 177.017 C 374.313 180.164, 370.458 184.727, 363.181 185.703 C 359.880 186.145, 352.625 184.625, 347.304 182.375 C 346.182 181.900, 341 188.884, 341 190.872 C 341 192.552, 349.432 195.183, 356.550 195.723 C 368.868 196.658, 379.758 191.828, 383.005 183.988 C 384.633 180.057, 383.759 172.496, 381.371 169.857 C 378.052 166.190, 374.056 164.890, 363.508 164.046 C 357.817 163.590, 352.675 162.917, 352.080 162.550 C 350.485 161.563, 350.769 157.437, 352.533 155.972 C 355.104 153.838, 363.268 153.596, 368.955 155.485 C 371.801 156.430, 374.247 157.045, 374.391 156.852 C 376.654 153.808, 379.001 148.810, 378.527 148.044 C 376.375 144.562, 358.829 142.902, 351.558 145.492 M 137.045 147.092 C 126.021 149.253, 115.748 157.134, 111.094 167 C 107.567 174.478, 107.370 188.027, 110.684 195.217 C 113.925 202.247, 121.025 209.276, 128.266 212.620 C 133.693 215.127, 135.665 215.497, 143.500 215.477 C 151.203 215.457, 153.364 215.053, 158.500 212.676 C 163.658 210.288, 173 202.768, 173 201.004 C 173 200.685, 170.966 198.723, 168.479 196.645 L 163.959 192.866 159.539 196.757 C 151.887 203.492, 142.950 204.772, 134.159 200.392 C 124.734 195.695, 120.319 185.293, 123.340 174.901 C 126.212 165.024, 133.551 159.588, 144.088 159.534 C 149.855 159.504, 151.349 159.918, 156.071 162.853 L 161.466 166.207 165.720 161.353 L 169.974 156.500 167.747 154.645 C 163.835 151.387, 156.597 148.212, 150.526 147.089 C 143.916 145.868, 143.293 145.868, 137.045 147.092 M 280 146.688 C 272.155 147.279, 270.921 147.796, 271.435 150.272 C 271.690 151.498, 272.185 155.574, 272.537 159.332 L 273.177 166.163 277.838 165.616 C 280.402 165.315, 285.386 164.775, 288.913 164.417 C 297.021 163.594, 300 161.063, 300 155 C 300 151.990, 299.352 150.261, 297.545 148.455 C 294.998 145.907, 293.016 145.708, 280 146.688 M 399.500 226.578 C 376.950 228.408, 299.100 234.474, 226.500 240.059 C 153.900 245.643, 94.411 250.292, 94.301 250.388 C 94.192 250.485, 95.049 253.806, 96.205 257.769 L 98.307 264.975 101.903 264.481 C 103.881 264.209, 138.350 260.150, 178.500 255.460 C 323.860 238.479, 450.393 223.204, 445.500 223.228 C 442.750 223.241, 422.050 224.749, 399.500 226.578 M 379 256.719 C 373.947 258.544, 372.085 265.957, 375.829 269.345 C 378.404 271.675, 384.256 271.479, 386.512 268.987 C 391.224 263.780, 385.471 254.383, 379 256.719 M 359.036 260.883 L 353.571 262.571 353.861 267.035 C 354.637 278.982, 359.660 328.993, 360.132 329.465 C 360.428 329.761, 363.473 329.711, 366.898 329.353 L 373.125 328.702 372.591 325.101 C 372.298 323.120, 370.896 308.450, 369.477 292.500 C 366.738 261.725, 366.384 258.943, 365.231 259.098 C 364.829 259.152, 362.041 259.955, 359.036 260.883 M 278.127 265.498 C 275.722 266.248, 272.502 268.061, 270.971 269.528 C 267.751 272.612, 265.660 279.669, 266.553 284.431 C 267.089 287.288, 266.862 287.805, 264.835 288.347 C 263.551 288.691, 261.070 288.979, 259.323 288.986 C 257.146 288.996, 256.003 289.551, 255.689 290.750 C 255.304 292.226, 255.214 292.245, 255.116 290.873 C 255.003 289.281, 252.237 289.166, 243.364 290.386 C 241.529 290.638, 241.141 290.048, 240.614 286.200 C 240.276 283.736, 240 280.200, 240 278.341 C 240 275.158, 239.841 275.001, 237.250 275.636 C 235.738 276.007, 232.925 276.857, 231 277.526 L 227.500 278.740 227.654 285.370 C 227.807 291.914, 227.774 292, 225.154 292.014 C 218.733 292.047, 217.879 292.828, 218.202 298.379 L 218.500 303.500 223.750 303.158 C 228.301 302.862, 229.003 303.062, 229.022 304.658 C 229.110 311.968, 231.981 332.063, 233.302 334.618 C 236.231 340.281, 245.737 342.589, 255.250 339.947 L 259 338.906 259 333.386 C 259 328.599, 258.767 327.934, 257.250 328.379 C 246.117 331.650, 244.760 330.306, 243.209 314.483 C 241.887 300.983, 241.859 301.049, 249 301 C 253.857 300.967, 255.381 300.338, 256.271 298 C 256.704 296.861, 256.861 296.952, 256.921 298.374 C 256.991 300.027, 257.647 300.194, 262.500 299.792 C 267.023 299.416, 268.012 299.616, 268.067 300.918 C 268.103 301.788, 268.901 310.375, 269.840 320 L 271.547 337.500 277.871 337.319 C 281.349 337.220, 284.334 336.995, 284.504 336.819 C 284.776 336.538, 283.155 318.101, 281.557 303.311 L 280.997 298.121 288.079 297.424 C 294.655 296.776, 295.121 296.575, 294.594 294.613 C 294.283 293.451, 294.021 290.979, 294.014 289.121 L 294 285.742 287 286.431 L 280 287.121 280 282.683 C 280 277.220, 281.471 275.853, 288.025 275.224 L 292.983 274.747 292.408 270.624 C 292.092 268.356, 291.660 265.938, 291.448 265.250 C 290.941 263.604, 283.769 263.738, 278.127 265.498 M 414.718 274.385 C 403.099 278.690, 397.133 287.214, 397.044 299.636 C 396.935 314.797, 410.081 326.158, 426.072 324.722 C 433.294 324.074, 438.762 321.214, 443.866 315.414 C 448.524 310.123, 449.996 305.925, 449.972 298 C 449.944 288.560, 444.254 279.767, 435.403 275.485 C 430.427 273.077, 419.776 272.511, 414.718 274.385 M 378.616 277.729 C 375.745 278.157, 375.734 278.185, 376.302 283.829 C 376.616 286.948, 377.666 298.196, 378.636 308.825 L 380.399 328.150 386.450 327.463 C 389.777 327.084, 392.706 326.582, 392.959 326.346 C 393.386 325.945, 390.512 290.699, 389.282 281.250 C 388.741 277.100, 388.643 277.004, 385.114 277.150 C 383.126 277.232, 380.202 277.493, 378.616 277.729 M 315.054 283.667 C 308.568 286.045, 301.520 293.509, 299.575 300.059 C 298.709 302.976, 298 306.550, 298 308 C 298 318.246, 306.019 329.185, 315.947 332.482 C 326.343 335.935, 338.741 332.626, 345.651 324.552 C 349.062 320.568, 352 312.908, 352 308 C 352 299.348, 345.488 288.829, 337.643 284.807 C 332.130 281.982, 321.161 281.428, 315.054 283.667 M 419.462 285.054 C 414.652 286.469, 410.851 291.142, 410.262 296.364 C 409.608 302.169, 410.386 305.117, 413.573 308.904 C 418.606 314.885, 427.816 314.933, 433.493 309.007 C 437.361 304.970, 438.161 296.173, 435.103 291.304 C 431.597 285.723, 425.487 283.281, 419.462 285.054 M 77.614 288.601 C 70.527 289.337, 64.623 290.065, 64.495 290.219 C 64.199 290.575, 70.258 356.370, 70.632 356.871 C 70.785 357.076, 73.910 356.921, 77.577 356.529 L 84.245 355.815 83.495 346.157 C 83.084 340.846, 82.691 335.157, 82.623 333.515 L 82.500 330.529 94.720 329.306 C 107.428 328.033, 111.408 326.713, 116.339 322.136 C 124.117 314.915, 124.719 302.968, 117.732 294.492 C 111.394 286.802, 104.583 285.802, 77.614 288.601 M 206.500 293.503 C 204.300 294.281, 201.488 296.087, 200.250 297.515 L 198 300.112 198 297.417 C 198 294.726, 197.992 294.723, 191.921 295.273 C 188.578 295.577, 185.570 296.096, 185.238 296.428 C 184.659 297.007, 188.769 345.102, 189.456 345.789 C 189.640 345.973, 192.537 345.812, 195.895 345.432 C 201.306 344.820, 202 344.492, 202 342.545 C 202 340.029, 200.217 320.198, 199.532 315.095 C 199.141 312.181, 199.630 311.135, 202.920 307.845 C 206.425 304.340, 207.239 304, 212.132 304.001 L 217.500 304.001 217.141 298.751 C 216.651 291.607, 214.649 290.620, 206.500 293.503 M 321.208 293.711 C 317.674 294.388, 312.188 300.479, 311.419 304.582 C 310.543 309.251, 312.309 315.036, 315.622 318.350 C 322.205 324.932, 333.380 323.041, 337.351 314.674 C 339.497 310.150, 339.405 306.489, 337.012 301.216 C 335.528 297.946, 334.054 296.472, 330.784 294.988 C 326.485 293.037, 325.450 292.899, 321.208 293.711 M 145.718 299.385 C 134.099 303.690, 128.133 312.214, 128.044 324.636 C 127.935 339.797, 141.081 351.158, 157.072 349.722 C 164.294 349.074, 169.762 346.214, 174.866 340.414 C 179.524 335.123, 180.996 330.925, 180.972 323 C 180.944 313.560, 175.254 304.767, 166.403 300.485 C 161.427 298.077, 150.776 297.511, 145.718 299.385 M 88 299.688 C 80.155 300.279, 78.921 300.796, 79.435 303.272 C 79.690 304.498, 80.185 308.574, 80.537 312.332 L 81.177 319.163 85.838 318.616 C 88.402 318.315, 93.386 317.775, 96.913 317.417 C 105.021 316.594, 108 314.063, 108 308 C 108 304.990, 107.352 303.261, 105.545 301.455 C 102.998 298.907, 101.016 298.708, 88 299.688 M 150.462 310.054 C 145.652 311.469, 141.851 316.142, 141.262 321.364 C 140.608 327.169, 141.386 330.117, 144.573 333.904 C 149.606 339.885, 158.816 339.933, 164.493 334.007 C 168.361 329.970, 169.161 321.173, 166.103 316.304 C 162.597 310.723, 156.487 308.281, 150.462 310.054" stroke="none" fill="#eff0f4" fill-rule="evenodd"/><path d="M 0 250.002 L 0 500.004 250.250 499.752 L 500.500 499.500 500.752 249.750 L 501.004 0 250.502 0 L 0 0 0 250.002 M 0.492 250.500 C 0.492 388, 0.608 444.101, 0.750 375.170 C 0.892 306.238, 0.892 193.738, 0.750 125.170 C 0.608 56.601, 0.492 113, 0.492 250.500 M 323.118 126.906 C 321.968 127.635, 318.042 145.999, 318.009 150.805 C 318.003 151.737, 319.343 152.023, 322.704 151.805 L 327.407 151.500 331.187 139.500 C 333.266 132.900, 334.975 127.162, 334.984 126.750 C 335.006 125.703, 324.805 125.837, 323.118 126.906 M 269.614 135.601 C 262.527 136.337, 256.623 137.065, 256.495 137.219 C 256.199 137.575, 262.258 203.370, 262.632 203.871 C 262.785 204.076, 265.910 203.921, 269.577 203.529 L 276.245 202.815 275.495 193.157 C 275.084 187.846, 274.691 182.157, 274.623 180.515 L 274.500 177.529 286.720 176.306 C 299.428 175.033, 303.408 173.713, 308.339 169.136 C 316.117 161.915, 316.719 149.968, 309.732 141.492 C 303.394 133.802, 296.583 132.802, 269.614 135.601 M 234.828 138.903 C 231.708 139.237, 228.968 139.734, 228.739 140.006 C 228.510 140.278, 225.040 148.743, 221.028 158.817 C 217.016 168.891, 213.424 176.766, 213.046 176.317 C 212.667 175.868, 207.711 168.139, 202.031 159.143 L 191.705 142.786 188.103 143.382 C 186.121 143.710, 182.700 143.990, 180.500 144.004 C 178.300 144.019, 175.946 144.382, 175.270 144.812 C 174.309 145.423, 174.688 152.371, 177.004 176.547 C 178.635 193.571, 179.976 208.535, 179.984 209.800 C 180 212.026, 180.200 212.077, 186.250 211.417 C 189.688 211.042, 192.650 210.607, 192.834 210.450 C 193.018 210.294, 192.184 199.750, 190.980 187.020 C 189.777 174.289, 188.997 163.670, 189.246 163.420 C 189.496 163.171, 195.481 171.946, 202.548 182.920 C 209.615 193.894, 215.698 202.687, 216.066 202.459 C 216.434 202.232, 220.694 192.326, 225.534 180.445 C 230.748 167.644, 234.618 159.385, 235.033 160.172 C 235.417 160.902, 236.487 170.500, 237.410 181.500 C 239.692 208.699, 238.858 206.381, 246.132 205.722 C 249.446 205.421, 252.319 205.014, 252.517 204.817 C 252.714 204.619, 251.560 190.517, 249.952 173.479 C 248.344 156.441, 247.022 141.488, 247.014 140.250 C 246.999 137.776, 246.177 137.685, 234.828 138.903 M 351.558 145.492 C 342.957 148.556, 338.574 154.375, 339.321 161.736 C 340.242 170.810, 344.851 173.888, 359.206 175.016 C 364.615 175.441, 369.707 176.342, 370.520 177.017 C 374.313 180.164, 370.458 184.727, 363.181 185.703 C 359.880 186.145, 352.625 184.625, 347.304 182.375 C 346.182 181.900, 341 188.884, 341 190.872 C 341 192.552, 349.432 195.183, 356.550 195.723 C 368.868 196.658, 379.758 191.828, 383.005 183.988 C 384.633 180.057, 383.759 172.496, 381.371 169.857 C 378.052 166.190, 374.056 164.890, 363.508 164.046 C 357.817 163.590, 352.675 162.917, 352.080 162.550 C 350.485 161.563, 350.769 157.437, 352.533 155.972 C 355.104 153.838, 363.268 153.596, 368.955 155.485 C 371.801 156.430, 374.247 157.045, 374.391 156.852 C 376.654 153.808, 379.001 148.810, 378.527 148.044 C 376.375 144.562, 358.829 142.902, 351.558 145.492 M 137.045 147.092 C 126.021 149.253, 115.748 157.134, 111.094 167 C 107.567 174.478, 107.370 188.027, 110.684 195.217 C 113.925 202.247, 121.025 209.276, 128.266 212.620 C 133.693 215.127, 135.665 215.497, 143.500 215.477 C 151.203 215.457, 153.364 215.053, 158.500 212.676 C 163.658 210.288, 173 202.768, 173 201.004 C 173 200.685, 170.966 198.723, 168.479 196.645 L 163.959 192.866 159.539 196.757 C 151.887 203.492, 142.950 204.772, 134.159 200.392 C 124.734 195.695, 120.319 185.293, 123.340 174.901 C 126.212 165.024, 133.551 159.588, 144.088 159.534 C 149.855 159.504, 151.349 159.918, 156.071 162.853 L 161.466 166.207 165.720 161.353 L 169.974 156.500 167.747 154.645 C 163.835 151.387, 156.597 148.212, 150.526 147.089 C 143.916 145.868, 143.293 145.868, 137.045 147.092 M 280 146.688 C 272.155 147.279, 270.921 147.796, 271.435 150.272 C 271.690 151.498, 272.185 155.574, 272.537 159.332 L 273.177 166.163 277.838 165.616 C 280.402 165.315, 285.386 164.775, 288.913 164.417 C 297.021 163.594, 300 161.063, 300 155 C 300 151.990, 299.352 150.261, 297.545 148.455 C 294.998 145.907, 293.016 145.708, 280 146.688 M 399.500 226.578 C 376.950 228.408, 299.100 234.474, 226.500 240.059 C 153.900 245.643, 94.411 250.292, 94.301 250.388 C 94.192 250.485, 95.049 253.806, 96.205 257.769 L 98.307 264.975 101.903 264.481 C 103.881 264.209, 138.350 260.150, 178.500 255.460 C 323.860 238.479, 450.393 223.204, 445.500 223.228 C 442.750 223.241, 422.050 224.749, 399.500 226.578 M 379 256.719 C 373.947 258.544, 372.085 265.957, 375.829 269.345 C 378.404 271.675, 384.256 271.479, 386.512 268.987 C 391.224 263.780, 385.471 254.383, 379 256.719 M 359.036 260.883 L 353.571 262.571 353.861 267.035 C 354.637 278.982, 359.660 328.993, 360.132 329.465 C 360.428 329.761, 363.473 329.711, 366.898 329.353 L 373.125 328.702 372.591 325.101 C 372.298 323.120, 370.896 308.450, 369.477 292.500 C 366.738 261.725, 366.384 258.943, 365.231 259.098 C 364.829 259.152, 362.041 259.955, 359.036 260.883 M 278.127 265.498 C 275.722 266.248, 272.502 268.061, 270.971 269.528 C 267.751 272.612, 265.660 279.669, 266.553 284.431 C 267.089 287.288, 266.862 287.805, 264.835 288.347 C 263.551 288.691, 261.070 288.979, 259.323 288.986 C 257.146 288.996, 256.003 289.551, 255.689 290.750 C 255.304 292.226, 255.214 292.245, 255.116 290.873 C 255.003 289.281, 252.237 289.166, 243.364 290.386 C 241.529 290.638, 241.141 290.048, 240.614 286.200 C 240.276 283.736, 240 280.200, 240 278.341 C 240 275.158, 239.841 275.001, 237.250 275.636 C 235.738 276.007, 232.925 276.857, 231 277.526 L 227.500 278.740 227.654 285.370 C 227.807 291.914, 227.774 292, 225.154 292.014 C 218.733 292.047, 217.879 292.828, 218.202 298.379 L 218.500 303.500 223.750 303.158 C 228.301 302.862, 229.003 303.062, 229.022 304.658 C 229.110 311.968, 231.981 332.063, 233.302 334.618 C 236.231 340.281, 245.737 342.589, 255.250 339.947 L 259 338.906 259 333.386 C 259 328.599, 258.767 327.934, 257.250 328.379 C 246.117 331.650, 244.760 330.306, 243.209 314.483 C 241.887 300.983, 241.859 301.049, 249 301 C 253.857 300.967, 255.381 300.338, 256.271 298 C 256.704 296.861, 256.861 296.952, 256.921 298.374 C 256.991 300.027, 257.647 300.194, 262.500 299.792 C 267.023 299.416, 268.012 299.616, 268.067 300.918 C 268.103 301.788, 268.901 310.375, 269.840 320 L 271.547 337.500 277.871 337.319 C 281.349 337.220, 284.334 336.995, 284.504 336.819 C 284.776 336.538, 283.155 318.101, 281.557 303.311 L 280.997 298.121 288.079 297.424 C 294.655 296.776, 295.121 296.575, 294.594 294.613 C 294.283 293.451, 294.021 290.979, 294.014 289.121 L 294 285.742 287 286.431 L 280 287.121 280 282.683 C 280 277.220, 281.471 275.853, 288.025 275.224 L 292.983 274.747 292.408 270.624 C 292.092 268.356, 291.660 265.938, 291.448 265.250 C 290.941 263.604, 283.769 263.738, 278.127 265.498 M 414.718 274.385 C 403.099 278.690, 397.133 287.214, 397.044 299.636 C 396.935 314.797, 410.081 326.158, 426.072 324.722 C 433.294 324.074, 438.762 321.214, 443.866 315.414 C 448.524 310.123, 449.996 305.925, 449.972 298 C 449.944 288.560, 444.254 279.767, 435.403 275.485 C 430.427 273.077, 419.776 272.511, 414.718 274.385 M 378.616 277.729 C 375.745 278.157, 375.734 278.185, 376.302 283.829 C 376.616 286.948, 377.666 298.196, 378.636 308.825 L 380.399 328.150 386.450 327.463 C 389.777 327.084, 392.706 326.582, 392.959 326.346 C 393.386 325.945, 390.512 290.699, 389.282 281.250 C 388.741 277.100, 388.643 277.004, 385.114 277.150 C 383.126 277.232, 380.202 277.493, 378.616 277.729 M 315.054 283.667 C 308.568 286.045, 301.520 293.509, 299.575 300.059 C 298.709 302.976, 298 306.550, 298 308 C 298 318.246, 306.019 329.185, 315.947 332.482 C 326.343 335.935, 338.741 332.626, 345.651 324.552 C 349.062 320.568, 352 312.908, 352 308 C 352 299.348, 345.488 288.829, 337.643 284.807 C 332.130 281.982, 321.161 281.428, 315.054 283.667 M 419.462 285.054 C 414.652 286.469, 410.851 291.142, 410.262 296.364 C 409.608 302.169, 410.386 305.117, 413.573 308.904 C 418.606 314.885, 427.816 314.933, 433.493 309.007 C 437.361 304.970, 438.161 296.173, 435.103 291.304 C 431.597 285.723, 425.487 283.281, 419.462 285.054 M 77.614 288.601 C 70.527 289.337, 64.623 290.065, 64.495 290.219 C 64.199 290.575, 70.258 356.370, 70.632 356.871 C 70.785 357.076, 73.910 356.921, 77.577 356.529 L 84.245 355.815 83.495 346.157 C 83.084 340.846, 82.691 335.157, 82.623 333.515 L 82.500 330.529 94.720 329.306 C 107.428 328.033, 111.408 326.713, 116.339 322.136 C 124.117 314.915, 124.719 302.968, 117.732 294.492 C 111.394 286.802, 104.583 285.802, 77.614 288.601 M 206.500 293.503 C 204.300 294.281, 201.488 296.087, 200.250 297.515 L 198 300.112 198 297.417 C 198 294.726, 197.992 294.723, 191.921 295.273 C 188.578 295.577, 185.570 296.096, 185.238 296.428 C 184.659 297.007, 188.769 345.102, 189.456 345.789 C 189.640 345.973, 192.537 345.812, 195.895 345.432 C 201.306 344.820, 202 344.492, 202 342.545 C 202 340.029, 200.217 320.198, 199.532 315.095 C 199.141 312.181, 199.630 311.135, 202.920 307.845 C 206.425 304.340, 207.239 304, 212.132 304.001 L 217.500 304.001 217.141 298.751 C 216.651 291.607, 214.649 290.620, 206.500 293.503 M 321.208 293.711 C 317.674 294.388, 312.188 300.479, 311.419 304.582 C 310.543 309.251, 312.309 315.036, 315.622 318.350 C 322.205 324.932, 333.380 323.041, 337.351 314.674 C 339.497 310.150, 339.405 306.489, 337.012 301.216 C 335.528 297.946, 334.054 296.472, 330.784 294.988 C 326.485 293.037, 325.450 292.899, 321.208 293.711 M 145.718 299.385 C 134.099 303.690, 128.133 312.214, 128.044 324.636 C 127.935 339.797, 141.081 351.158, 157.072 349.722 C 164.294 349.074, 169.762 346.214, 174.866 340.414 C 179.524 335.123, 180.996 330.925, 180.972 323 C 180.944 313.560, 175.254 304.767, 166.403 300.485 C 161.427 298.077, 150.776 297.511, 145.718 299.385 M 88 299.688 C 80.155 300.279, 78.921 300.796, 79.435 303.272 C 79.690 304.498, 80.185 308.574, 80.537 312.332 L 81.177 319.163 85.838 318.616 C 88.402 318.315, 93.386 317.775, 96.913 317.417 C 105.021 316.594, 108 314.063, 108 308 C 108 304.990, 107.352 303.261, 105.545 301.455 C 102.998 298.907, 101.016 298.708, 88 299.688 M 150.462 310.054 C 145.652 311.469, 141.851 316.142, 141.262 321.364 C 140.608 327.169, 141.386 330.117, 144.573 333.904 C 149.606 339.885, 158.816 339.933, 164.493 334.007 C 168.361 329.970, 169.161 321.173, 166.103 316.304 C 162.597 310.723, 156.487 308.281, 150.462 310.054" stroke="none" fill="#045cf4" fill-rule="evenodd"/></svg>